<svg xml:space="preserve" style="enable-background:new 0 0 555.1 546.2;" viewBox="0 0 555.1 546.2" y="0px" x="0px" xmlns:xlink="http://www.w3.org/1999/xlink" xmlns="http://www.w3.org/2000/svg" version="1.1" width="555.1" height="546.2">
<style type="text/css">
	.st0{fill:#0C406C;}
</style>
<g id="Layer_1">
</g>
<g id="Layer_2">
	<g>
		<path d="M287.7,228.9l-8.6-19l-8.6,19l-8.4,18.6c-4.5,9.8-3.7,21.3,2.2,30.4l6.2,9.7l8.6,13.5
			l8.6-13.5l6.2-9.7c5.9-9.1,6.7-20.5,2.2-30.4L287.7,228.9z" class="st0" id="Path_2382"></path>
		<path d="M286.5,130.3l-7.4-15.3l-7.4,15.3l-7.3,14.9c-3.9,7.9-3.1,17.3,1.9,24.4l5.3,7.8l7.4,10.9
			l7.4-10.9l5.3-7.8c5.1-7.2,5.8-16.6,1.9-24.4L286.5,130.3z" class="st0" id="Path_2383"></path>
		<path d="M282.8,74.5l-3.7-7.6l-3.7,7.6l-3.6,7.4c-1.9,3.9-1.6,8.5,0.9,12.1l2.6,3.9l3.7,5.4l3.7-5.4
			l2.6-3.9c2.5-3.6,2.9-8.2,0.9-12.1L282.8,74.5z" class="st0" id="Path_2384"></path>
		<path d="M246.6,92.5l-8.8-14.7l-6,15.7l-5.9,15.4c-3.1,8.2-1.5,17.5,4.1,24.2l6,7.5l8.4,10.4l6.4-11.4
			l4.6-8.2c4.4-7.6,4.3-17-0.3-24.5L246.6,92.5z" class="st0" id="Path_2385"></path>
		<path d="M257.1,294.6c-8.5-7.4-13.6-17.9-14.2-29.1c-1.1-19.1,3.3-29.8-18.6-54.2
			c0,0,0.4,21.1-5.8,37.8S225.7,295.9,257.1,294.6" class="st0" id="Path_2386"></path>
		<path d="M238.5,300.1c0,0-17.1-3.1-32.4-26.2s-37.5-35.6-66.3-29c0,0,15.7,10.3,31,30
			C186,294.5,210.4,306.4,238.5,300.1" class="st0" id="Path_2387"></path>
		<path d="M252.7,230.2c0,0-4-10.9-14.9-24c-10.9-13.1,2.2-34,7.7-40.9c0,0,3.3,7.5,12.4,19.3
			C266.9,196.5,265.5,206.2,252.7,230.2" class="st0" id="Path_2388"></path>
		<path d="M221.4,188.1c0,0-0.4-3.4,5.8-15.6s0-28.4-17.1-40.9c-1.6,7.7-3.7,15.3-6.2,22.8
			C199.9,166,205.3,176.3,221.4,188.1" class="st0" id="Path_2389"></path>
		<path d="M173.8,195.6c0,0-1.5-3.2,0.3-16.4c1.8-13.2-9.6-27.2-30.2-34.9c1.1,7.7,1.7,15.5,1.7,23.3
			C145.8,179.7,154.5,188.2,173.8,195.6" class="st0" id="Path_2390"></path>
		<path d="M191,236.4c0,0-3.1-2.2-9.1-14.4c-5.9-12.3-23.9-19.7-46.3-17.8c5.3,6.3,10.3,12.8,14.9,19.6
			C157.5,234.3,169.9,238.1,191,236.4" class="st0" id="Path_2391"></path>
		<path d="M206.4,234.6c6-9.8,7.4-21.8,3.6-32.8c-3.9-11.9-22.6-31.2-22.6-31.2S171.8,215,206.4,234.6" class="st0" id="Path_2392"></path>
		<path d="M311.4,92.5l8.8-14.7l6,15.7l5.9,15.4c3.1,8.2,1.5,17.5-4.1,24.2l-6,7.5l-8.4,10.4l-6.4-11.4
			l-4.6-8.2c-4.4-7.6-4.3-17,0.3-24.5L311.4,92.5z" class="st0" id="Path_2393"></path>
		<path d="M301,294.6c8.5-7.4,13.6-17.9,14.2-29.1c1.1-19.1-3.3-29.8,18.6-54.2c0,0-0.4,21.1,5.8,37.8
			S332.3,295.9,301,294.6" class="st0" id="Path_2394"></path>
		<path d="M319.6,300.1c0,0,17.1-3.1,32.4-26.2c15.3-23.1,37.5-35.6,66.3-29c0,0-15.7,10.3-31,30
			S347.6,306.4,319.6,300.1" class="st0" id="Path_2395"></path>
		<path d="M305.4,230.2c0,0,4-10.9,14.9-24c10.9-13.1-2.2-34-7.7-40.9c0,0-3.3,7.5-12.4,19.3
			C291.2,196.5,292.6,206.2,305.4,230.2" class="st0" id="Path_2396"></path>
		<path d="M336.7,188.1c0,0,0.4-3.4-5.8-15.6c-6.2-12.2,0-28.4,17.1-40.9c1.6,7.7,3.7,15.3,6.2,22.8
			C358.2,166,352.7,176.3,336.7,188.1" class="st0" id="Path_2397"></path>
		<path d="M364.9,154.1c0,0,0.8-2.8-2.4-13.6s4.4-23.3,20.5-31.3c0.1,6.5,0.6,13.1,1.6,19.6
			C386.1,138.7,380,146.5,364.9,154.1" class="st0" id="Path_2398"></path>
		<path d="M367.1,236.4c0,0,3.1-2.2,9.1-14.4c5.9-12.3,23.9-19.7,46.3-17.8
			c-5.3,6.3-10.3,12.8-14.9,19.6C400.6,234.3,388.2,238.1,367.1,236.4" class="st0" id="Path_2399"></path>
		<path d="M351.7,234.6c-6-9.8-7.4-21.8-3.6-32.8c3.9-11.9,22.6-31.2,22.6-31.2S386.3,215,351.7,234.6" class="st0" id="Path_2400"></path>
		<path d="M194.1,154.1c0,0-0.8-2.8,2.4-13.6c3.2-10.8-4.4-23.3-20.5-31.3c-0.1,6.5-0.6,13.1-1.6,19.6
			C173,138.7,179.1,146.5,194.1,154.1" class="st0" id="Path_2401"></path>
		<path d="M311.5,312.4c0,0-12.6,24.9-10.5,101.3c0.9,33.4,14.1,132.5,14.1,132.5h-72
			c0,0,12.8-92.3,14.1-132.5c2.1-68.3-10.5-101.3-10.5-101.3l32.2,10.6L311.5,312.4z" class="st0" id="Path_2402"></path>
		<path d="M279,58.5c-1.5-4.8-2.4-9.7-3-14.6c-0.5-4.9-0.8-9.7-0.8-14.6c0-4.9,0.3-9.8,0.8-14.6
			c0.5-5,1.5-9.9,3-14.6c1.5,4.8,2.5,9.7,3,14.6c0.5,4.9,0.8,9.7,0.8,14.6c0,4.9-0.3,9.8-0.8,14.6C281.5,48.8,280.5,53.7,279,58.5" class="st0" id="Path_2403"></path>
		<path d="M264.4,71.9c-2-4.5-3.6-9.1-4.7-13.9c-2.3-9.4-3.5-18.9-3.6-28.6c-0.1-4.9,0.3-9.8,1.2-14.7
			c2,4.5,3.6,9.1,4.7,13.9c1.1,4.7,2,9.4,2.6,14.2c0.6,4.8,0.9,9.6,1,14.4C265.6,62.2,265.2,67.1,264.4,71.9" class="st0" id="Path_2404"></path>
		<path d="M248.5,68.1c-2.4-3.6-4.5-7.5-6-11.6c-1.6-4-2.9-8-4-12.1c-1.1-4.1-1.9-8.3-2.4-12.5
			c-0.6-4.3-0.7-8.7-0.3-13.1c2.4,3.6,4.5,7.5,6.1,11.6c1.6,4,2.9,8,4,12.1c1.1,4.1,1.9,8.3,2.4,12.5
			C248.8,59.4,248.9,63.8,248.5,68.1" class="st0" id="Path_2405"></path>
		<path d="M231.6,67.4c-2.7-2.8-5-6-6.9-9.4c-1.9-3.3-3.5-6.7-4.9-10.2c-1.4-3.5-2.5-7.1-3.4-10.8
			c-0.9-3.8-1.4-7.7-1.4-11.6c2.7,2.8,5,6,6.9,9.4c1.9,3.3,3.5,6.7,4.9,10.2c1.4,3.5,2.5,7.1,3.4,10.8
			C231.1,59.6,231.6,63.5,231.6,67.4" class="st0" id="Path_2406"></path>
		<path d="M220.5,80.7c-3.3-3-6.3-6.4-8.9-10c-2.6-3.5-4.9-7.2-7-11.1c-2.1-3.8-4-7.8-5.6-11.9
			c-1.7-4.2-2.9-8.5-3.7-12.9c3.3,3,6.3,6.4,8.9,10c2.6,3.5,4.9,7.2,7,11.1c2.1,3.8,4,7.8,5.6,11.9
			C218.5,71.9,219.7,76.3,220.5,80.7" class="st0" id="Path_2407"></path>
		<path d="M213.8,98.2c-4.2-3.4-8.1-7.1-11.7-11.2c-3.5-4-6.8-8.1-9.9-12.5c-3.1-4.3-6-8.8-8.6-13.4
			c-2.7-4.7-5-9.6-6.8-14.7c4.2,3.4,8.1,7.1,11.7,11.2c3.5,4,6.8,8.1,9.9,12.5c3.1,4.3,6,8.8,8.6,13.4
			C209.7,88.2,212,93.2,213.8,98.2" class="st0" id="Path_2408"></path>
		<path d="M205,116.2c-4.5-4.1-8.6-8.6-12.4-13.3l-11.2-13.8l-11.1-13.8c-3.9-4.7-7.3-9.7-10.4-15
			c5.2,3.2,10.1,6.9,14.7,10.9c4.6,4,8.9,8.4,12.7,13.2c3.8,4.8,7.3,9.8,10.2,15.2C200.4,104.9,203,110.5,205,116.2" class="st0" id="Path_2409"></path>
		<path d="M293.8,71.9c-0.9-4.8-1.2-9.7-1.1-14.7c0.1-4.8,0.4-9.6,1-14.4c0.6-4.8,1.4-9.5,2.6-14.2
			c1.1-4.8,2.7-9.4,4.7-13.9c0.9,4.8,1.3,9.7,1.2,14.7c-0.1,4.8-0.4,9.6-1,14.4c-0.6,4.8-1.5,9.5-2.6,14.2
			C297.4,62.8,295.9,67.4,293.8,71.9" class="st0" id="Path_2410"></path>
		<path d="M309.7,68.1c-0.4-4.4-0.3-8.7,0.3-13.1c0.5-4.2,1.3-8.4,2.4-12.5c1.1-4.1,2.4-8.2,4-12.1
			c1.6-4.1,3.6-8,6.1-11.6c0.4,4.4,0.3,8.7-0.3,13.1c-0.5,4.2-1.3,8.4-2.4,12.5c-1.1,4.1-2.4,8.2-4,12.1
			C314.2,60.6,312.2,64.5,309.7,68.1" class="st0" id="Path_2411"></path>
		<path d="M326.6,67.4c0-3.9,0.5-7.8,1.4-11.6c0.9-3.7,2-7.3,3.4-10.8c1.4-3.5,3-6.9,4.9-10.2
			c1.9-3.4,4.2-6.6,6.9-9.4c0,3.9-0.5,7.8-1.4,11.6c-0.9,3.7-2,7.3-3.4,10.8c-1.4,3.5-3,6.9-4.9,10.2
			C331.6,61.4,329.3,64.6,326.6,67.4" class="st0" id="Path_2412"></path>
		<path d="M337.7,80.7c0.8-4.4,2-8.7,3.7-12.9c1.6-4.1,3.5-8,5.6-11.9c2.1-3.8,4.4-7.5,7-11.1
			c2.6-3.7,5.6-7,8.9-10c-0.8,4.4-2,8.7-3.7,12.9c-1.6,4.1-3.5,8-5.6,11.9c-2.1,3.8-4.5,7.5-7,11.1C344,74.3,341,77.7,337.7,80.7" class="st0" id="Path_2413"></path>
		<path d="M344.4,98.2c1.8-5.1,4.1-10,6.9-14.7c2.6-4.6,5.5-9.1,8.6-13.4c3.1-4.3,6.4-8.5,9.9-12.5
			c3.5-4.1,7.5-7.8,11.7-11.2c-1.8,5.1-4.1,10-6.8,14.7c-2.6,4.6-5.5,9.1-8.6,13.4c-3.1,4.3-6.4,8.5-9.9,12.5
			C352.5,91.1,348.6,94.8,344.4,98.2" class="st0" id="Path_2414"></path>
		<path d="M353.2,116.2c2.1-5.7,4.6-11.3,7.5-16.6c5.9-10.7,13.7-20.3,22.9-28.4
			c4.6-4,9.5-7.6,14.7-10.9c-3.1,5.3-6.5,10.3-10.4,15l-11.1,13.8l-11.2,13.8C361.8,107.6,357.7,112.1,353.2,116.2" class="st0" id="Path_2415"></path>
		<path d="M384.3,195.1c0,0,1.5-3.2-0.3-16.4c-1.8-13.2,9.6-27.2,30.2-34.9c-1.1,7.7-1.7,15.5-1.7,23.3
			C412.3,179.2,403.6,187.7,384.3,195.1" class="st0" id="Path_2416"></path>
		<path d="M115.5,344.7c0,0,24.6,9.2,72.9,58.3c20.3,20.6,35.9,37.7,45.7,51.6
			c-6.8-51.7-31.2-95.4-72.4-129.3c-6.5-5.8-13.4-11.2-20.6-16.1c-27.5-18.7-41-48-41-48s0,23.8,0.4,26.3c-2.8-1.3-5.4-2.6-8.1-3.9
			c-12.8-9.2-36.8-31.1-45-54.1c-1.8,7.8-2.9,15.7-3.4,23.7C22.3,236,8.5,219.1,0,206.3c1.4,33.1,10,65.5,25,95
			c-2.7-1.9-18.1-13-23.7-19.4c0,0,9.7,36.5,36.9,62.8c15.6,15,33.6,27.2,53.3,36.1c0.5,0.4,0.9,0.7,1.4,1.1l-24.9-2.5
			c0,0,19.3,20.6,60.2,40.4c32,15.5,59.4,25.9,84.8,44.7C193.8,434.6,162.1,386.8,115.5,344.7" class="st0" id="Path_2417"></path>
		<path d="M439.6,344.7c0,0-24.6,9.2-72.9,58.3c-20.3,20.6-35.9,37.7-45.7,51.6
			c6.8-51.7,31.2-95.4,72.4-129.3c6.5-5.8,13.4-11.2,20.6-16.1c27.5-18.7,41-48,41-48s0,23.8-0.4,26.3c2.8-1.3,5.4-2.6,8.1-3.9
			c12.8-9.2,36.8-31.1,45-54.1c1.8,7.8,2.9,15.7,3.4,23.7c21.7-17.1,35.6-34,44.1-46.8c-1.4,33.1-10,65.5-25,95
			c2.7-1.9,18.1-13,23.7-19.4c0,0-9.7,36.5-36.9,62.8c-15.6,15-33.6,27.2-53.3,36.1c-0.5,0.4-0.9,0.7-1.4,1.1l24.9-2.5
			c0,0-19.3,20.6-60.2,40.4c-32,15.5-59.4,25.9-84.8,44.7C361.3,434.6,393.1,386.8,439.6,344.7" class="st0" id="Path_2418"></path>
	</g>
</g>
</svg>
